<?xml version="1.0" standalone="no"?><!DOCTYPE svg PUBLIC "-//W3C//DTD SVG 1.1//EN" "http://www.w3.org/Graphics/SVG/1.1/DTD/svg11.dtd" ><svg xmlns="http://www.w3.org/2000/svg"><metadata>Generated by Glyphter</metadata><defs><font id="iconfont" horiz-adv-x="0"><font-face units-per-em="1024" ascent="1024" descent="0" font-family="iconfont" font-weight="normal" /><missing-glyph horiz-adv-x="0" /><glyph unicode="&#x0041;" d="M952.649,494.211C1047.784,585.679,1047.784,733.985,952.649,825.453C862.098,912.545,716.667,917.254,620.157,836.038C620.157,836.038,609.822,827.245,609.822,827.245C592.904,813.077,591.237,788.366,605.947,772.073C620.699,755.779,646.41,754.154,663.328,768.322C663.328,768.322,673.662,777.115,673.662,777.115C738.002,831.162,834.804,828.078,895.268,769.947C958.566,709.066,958.566,610.265,895.268,549.217C895.268,549.217,703.457,364.948,703.457,364.948C640.159,304.067,537.232,304.067,473.892,364.948C413.469,423.079,410.26,516.172,466.433,578.053C466.433,578.053,474.392,586.846,474.392,586.846C489.144,603.097,487.435,627.683,470.517,642.018C453.598,656.353,428.012,654.561,413.136,638.267C413.136,638.267,405.177,629.475,405.177,629.475C320.876,536.715,325.794,396.868,416.344,309.776C511.479,218.308,665.703,218.308,760.838,309.776C760.838,309.776,952.649,494.211,952.649,494.211C952.649,494.211,952.649,494.211,952.649,494.211M71.351,530.673C-23.784,439.206,-23.784,290.899,71.351,199.598C162.069,112.339,307.5,107.797,403.968,189.013C403.968,189.013,414.303,197.806,414.303,197.806C431.263,211.974,432.929,236.685,418.22,252.978C403.468,269.272,377.757,270.897,360.839,256.729C360.839,256.729,350.504,247.936,350.504,247.936C286.165,193.889,189.321,196.973,128.899,255.103C65.6,315.985,65.6,414.786,128.899,475.834C128.899,475.834,320.71,659.936,320.71,659.936C384.008,720.817,486.768,720.817,550.275,659.936C610.698,601.805,613.906,508.713,557.692,446.831C557.692,446.831,548.566,436.914,548.566,436.914C533.815,420.62,535.523,396.076,552.442,381.741C569.402,367.407,594.946,369.198,609.864,385.492C609.864,385.492,618.99,395.409,618.99,395.409C703.457,488.169,698.54,628.016,607.989,715.275C512.854,806.743,358.63,806.743,263.496,715.275C263.496,715.275,71.351,530.673,71.351,530.673C71.351,530.673,71.351,530.673,71.351,530.673" class="icon-link"/><glyph unicode="&#x0042;" d="M800.025,639.013C800.025,798.456,670.996,927.792,512.014,927.792C353.032,927.792,224.004,798.456,224.004,639.013C224.004,614.129,233.015,575.625,254.622,524.32C275.615,474.603,305.415,419.613,339.618,364.11C396.605,271.434,462.605,182.036,512.014,118.238C561.629,182.036,627.628,271.434,684.411,364.11C718.614,419.613,748.414,474.603,769.406,524.32C791.014,575.625,800.025,614.129,800.025,639.013C800.025,639.013,800.025,639.013,800.025,639.013M896.029,639.013C896.029,463.749,662.036,151.724,559.427,23.002C534.799,-7.667,489.23,-7.667,464.601,23.002C361.993,151.724,128,463.749,128,639.013C128,851.552,299.987,1024,512.014,1024C724.042,1024,896.029,851.552,896.029,639.013C896.029,639.013,896.029,639.013,896.029,639.013M576.017,639.013C576.017,656.012,569.258,672.345,557.277,684.378C545.244,696.41,529.013,703.169,512.014,703.169C495.015,703.169,478.784,696.41,466.752,684.378C454.771,672.345,448.012,656.012,448.012,639.013C448.012,622.014,454.771,605.68,466.752,593.648C478.784,581.615,495.015,574.857,512.014,574.857C529.013,574.857,545.244,581.615,557.277,593.648C569.258,605.68,576.017,622.014,576.017,639.013C576.017,639.013,576.017,639.013,576.017,639.013M352.008,639.013C352.008,681.562,368.854,722.369,398.858,752.425C428.862,782.532,469.568,799.428,512.014,799.428C554.461,799.428,595.166,782.532,625.171,752.425C655.175,722.369,672.02,681.562,672.02,639.013C672.02,596.464,655.175,555.656,625.171,525.601C595.166,495.494,554.461,478.597,512.014,478.597C469.568,478.597,428.862,495.494,398.858,525.601C368.854,555.656,352.008,596.464,352.008,639.013C352.008,639.013,352.008,639.013,352.008,639.013" class="icon-location-dot"/><glyph unicode="&#x0043;" d="M416.453,928.011C501.333,928.011,582.681,894.325,642.681,834.274C702.68,774.274,736.417,692.927,736.417,608.047C736.417,523.167,702.68,441.819,642.681,381.819C582.681,321.82,501.333,288.083,416.453,288.083C331.573,288.083,250.226,321.82,190.226,381.819C130.175,441.819,96.489,523.167,96.489,608.047C96.489,692.927,130.175,774.274,190.226,834.274C250.226,894.325,331.573,928.011,416.453,928.011C416.453,928.011,416.453,928.011,416.453,928.011M416.453,192.094C514.029,192.094,603.824,225.677,674.626,281.888C674.626,281.888,942.372,14.091,942.372,14.091C961.211,-4.697,991.569,-4.697,1010.204,14.091C1028.788,32.931,1028.992,63.289,1010.204,81.924C1010.204,81.924,742.612,349.874,742.612,349.874C798.823,420.676,832.406,510.471,832.406,608.047C832.406,837.807,646.213,1024,416.453,1024C186.693,1024,0.5,837.807,0.5,608.047C0.5,378.287,186.693,192.094,416.453,192.094C416.453,192.094,416.453,192.094,416.453,192.094M368.433,432.092C368.433,405.471,389.832,384.072,416.453,384.072C443.074,384.072,464.473,405.471,464.473,432.092C464.422,432.092,464.422,560.078,464.422,560.078C464.422,560.078,592.408,560.078,592.408,560.078C619.029,560.078,640.428,581.426,640.428,608.047C640.428,634.668,619.029,656.067,592.408,656.067C592.408,656.067,464.422,656.067,464.422,656.067C464.422,656.067,464.422,784.053,464.422,784.053C464.422,810.622,443.074,832.022,416.453,832.022C389.832,832.022,368.433,810.622,368.433,784.053C368.433,784.053,368.433,656.067,368.433,656.067C368.433,656.067,240.447,656.067,240.447,656.067C213.878,656.067,192.478,634.668,192.478,608.047C192.478,581.426,213.878,560.078,240.447,560.078C240.447,560.078,368.433,560.078,368.433,560.078C368.433,560.078,368.433,432.092,368.433,432.092C368.433,432.092,368.433,432.092,368.433,432.092" class="icon-magnifying-glass-plus"/><glyph unicode="&#x0044;" d="M568.202,988.507C557.911,1010.522,536.202,1024.5,512.343,1024.5C488.484,1024.5,466.98,1010.522,456.484,988.507C456.484,988.507,331.813,723.957,331.813,723.957C331.813,723.957,53.337,681.564,53.337,681.564C30.092,677.929,10.688,661.135,3.52,638.147C-3.648,615.158,2.137,589.763,18.828,572.764C18.828,572.764,220.914,366.583,220.914,366.583C220.914,366.583,173.196,75.205,173.196,75.205C169.305,51.192,179.033,26.821,198.181,12.639C217.381,-1.594,242.827,-3.386,263.768,8.031C263.768,8.031,512.548,144.99,512.548,144.99C512.548,144.99,761.327,8.031,761.327,8.031C782.268,-3.386,807.663,-1.799,826.863,12.639C846.063,27.026,855.791,51.192,851.9,75.205C851.9,75.205,803.977,366.583,803.977,366.583C803.977,366.583,1006.062,572.764,1006.062,572.764C1022.753,589.763,1028.744,615.158,1021.371,638.147C1013.998,661.135,994.798,677.929,971.554,681.564C971.554,681.564,692.873,723.957,692.873,723.957C692.873,723.957,568.202,988.507,568.202,988.507C568.202,988.507,568.202,988.507,568.202,988.507" class="icon-star"/><glyph unicode="&#x0045;" d="M870.612,875.669C774.822,971.664,647.289,1024.449,511.77,1024.449C232.027,1024.449,4.352,796.825,4.352,517.082C4.352,427.691,27.698,340.4,72.035,263.348C72.035,263.348,0,0.5,0,0.5C0,0.5,269.043,71.152,269.043,71.152C343.074,30.706,426.526,9.408,511.565,9.408C511.565,9.408,511.77,9.408,511.77,9.408C791.308,9.408,1024,237.083,1024,516.826C1023.949,652.346,966.352,779.674,870.612,875.669C870.612,875.669,870.612,875.669,870.612,875.669M511.77,94.908C435.895,94.908,361.608,115.233,296.945,153.632C296.945,153.632,281.586,162.796,281.586,162.796C281.586,162.796,122.055,120.968,122.055,120.968C122.055,120.968,164.6,276.608,164.6,276.608C164.6,276.608,154.514,292.633,154.514,292.633C112.225,359.804,90.056,437.265,90.056,517.082C90.056,749.519,279.333,938.744,511.974,938.744C624.66,938.744,730.485,894.868,810.046,815.102C889.556,735.337,938.5,629.512,938.244,516.826C938.244,284.134,744.206,94.908,511.77,94.908C511.77,94.908,511.77,94.908,511.77,94.908M743.08,410.796C730.485,417.196,668.127,447.812,656.454,451.908C644.781,456.26,636.333,458.308,627.885,445.508C619.438,432.709,595.17,404.397,587.644,395.693C580.323,387.245,572.797,386.068,560.202,392.468C485.71,429.739,436.817,459.024,387.667,543.346C374.612,565.72,400.671,564.133,424.939,612.617C429.035,621.064,426.987,628.385,423.761,634.785C420.587,641.185,395.193,703.543,384.698,728.937C374.407,753.614,363.911,750.184,356.129,750.645C348.808,751.106,340.361,751.106,331.913,751.106C323.414,751.106,309.745,747.88,298.071,735.337C286.398,722.537,253.735,691.921,253.735,629.512C253.735,567.102,299.198,506.791,305.393,498.293C311.792,489.845,394.732,361.852,522.06,306.763C602.491,272.051,634.029,269.082,674.27,275.021C698.743,278.656,749.223,305.637,759.77,335.331C770.265,365.077,770.265,390.42,767.091,395.693C764.122,401.427,755.623,404.601,743.08,410.796C743.08,410.796,743.08,410.796,743.08,410.796" class="icon-whatsapp"/><glyph unicode="&#x0046;" d="M752.116,474.203C719.297,488.18,681.307,479.015,658.727,451.419C658.727,451.419,592.321,370.215,592.321,370.215C500.315,423.617,423.515,500.417,370.113,592.372C370.113,592.372,451.111,658.574,451.111,658.574C478.708,681.153,488.129,719.143,473.895,751.963C473.895,751.963,377.895,975.912,377.895,975.912C362.894,1011.086,325.108,1030.696,287.681,1022.708C287.681,1022.708,63.681,974.734,63.681,974.734C26.919,966.9,0.5,934.337,0.5,896.552C0.5,434.215,350.913,53.492,800.705,5.671C820.315,3.674,839.924,2.087,859.892,1.268C859.892,1.268,860.097,1.268,860.097,1.268C872.334,0.858,884.315,0.5,896.5,0.5C934.337,0.5,966.9,26.868,974.734,63.681C974.734,63.681,1022.708,287.63,1022.708,287.63C1030.747,325.006,1011.137,362.843,975.912,377.793C975.912,377.793,751.911,473.793,751.911,473.793C751.911,473.793,752.116,474.203,752.116,474.203C752.116,474.203,752.116,474.203,752.116,474.203M883.547,96.654C452.135,103.668,103.514,452.187,96.705,883.547C96.705,883.547,295.105,926.145,295.105,926.145C295.105,926.145,381.121,725.339,381.121,725.339C381.121,725.339,309.287,666.561,309.287,666.561C272.884,636.763,263.514,584.999,287.118,544.193C348.916,437.595,437.697,348.814,544.295,287.015C585.102,263.412,636.916,272.833,666.715,309.236C666.715,309.236,725.543,381.019,725.543,381.019C725.543,381.019,926.299,295.054,926.299,295.054C926.299,295.054,883.547,96.654,883.547,96.654C883.547,96.654,883.547,96.654,883.547,96.654" class="icon-phone"/><glyph unicode="&#x0047;" d="M227.588,957.58C251.233,957.58,270.246,938.967,270.246,915.812C270.246,915.812,270.246,846.257,270.246,846.257C270.246,846.257,526.288,846.257,526.288,846.257C526.288,846.257,526.288,915.856,526.288,915.856C526.288,938.967,545.347,957.58,568.992,957.58C592.636,957.58,611.65,938.967,611.65,915.812C611.65,915.812,611.65,846.257,611.65,846.257C611.65,846.257,682.763,846.257,682.763,846.257C745.549,846.257,796.579,796.34,796.579,734.935C796.579,734.935,796.579,623.612,796.579,623.612C796.579,623.612,85.362,623.612,85.362,623.612C85.362,623.612,85.362,178.322,85.362,178.322C85.362,163.005,98.142,150.492,113.772,150.492C113.772,150.492,466.753,150.492,466.753,150.492C466.753,150.492,457.669,115.358,457.669,115.358C453.572,99.016,454.463,82.318,460.163,67C460.163,67,113.772,67,113.772,67C51.03,67,0,116.917,0,178.322C0,178.322,0,734.935,0,734.935C0,796.34,51.03,846.257,113.772,846.257C113.772,846.257,184.929,846.257,184.929,846.257C184.929,846.257,184.929,915.856,184.929,915.856C184.929,938.967,203.943,957.58,227.588,957.58C227.588,957.58,227.588,957.58,227.588,957.58M213.383,512.29C213.383,512.29,526.288,512.29,526.288,512.29C549.933,512.29,568.992,493.677,568.992,470.522C568.992,447.411,549.933,428.798,526.288,428.798C526.288,428.798,213.383,428.798,213.383,428.798C189.694,428.798,170.68,447.411,170.68,470.566C170.68,493.677,189.694,512.29,213.383,512.29C213.383,512.29,213.383,512.29,213.383,512.29M170.68,303.538C170.68,326.693,189.694,345.306,213.383,345.306C213.383,345.306,412.517,345.306,412.517,345.306C436.162,345.306,455.175,326.693,455.175,303.538C455.175,280.427,436.162,261.814,412.517,261.814C412.517,261.814,213.383,261.814,213.383,261.814C189.694,261.814,170.68,280.427,170.68,303.538C170.68,303.538,170.68,303.538,170.68,303.538M977.59,547.601C977.59,547.601,1003.194,522.532,1003.194,522.532C1030.935,495.414,1030.935,451.419,1003.194,424.123C1003.194,424.123,950.917,372.959,950.917,372.959C950.917,372.959,824.677,496.482,824.677,496.482C824.677,496.482,876.954,547.601,876.954,547.601C904.696,574.72,949.67,574.72,977.59,547.601C977.59,547.601,977.59,547.601,977.59,547.601M554.564,232.247C554.564,232.247,784.289,456.985,784.289,456.985C784.289,456.985,910.529,333.462,910.529,333.462C910.529,333.462,680.804,108.902,680.804,108.902C673.546,101.777,664.462,96.745,654.309,94.296C654.309,94.296,547.44,68.202,547.44,68.202C537.688,65.798,527.535,68.559,520.455,75.505C513.33,82.496,510.48,92.382,512.974,101.955C512.974,101.955,539.647,206.509,539.647,206.509C542.141,216.261,547.261,225.301,554.564,232.425C554.564,232.425,554.564,232.247,554.564,232.247C554.564,232.247,554.564,232.247,554.564,232.247" class="icon-calendar-pencil"/><glyph unicode="&#x0048;" d="M128,800C110.387,800,96,785.613,96,768C96,768,96,723.814,96,723.814C96,723.814,440.986,440.576,440.986,440.576C482.406,406.579,541.798,406.579,583.219,440.576C583.219,440.576,928,723.814,928,723.814C928,723.814,928,768,928,768C928,785.613,913.613,800,896,800C896,800,128,800,128,800C128,800,128,800,128,800M96,599.603C96,599.603,96,256,96,256C96,238.387,110.387,224,128,224C128,224,896,224,896,224C913.613,224,928,238.387,928,256C928,256,928,599.603,928,599.603C928,599.603,643.994,366.387,643.994,366.387C567.194,303.411,456.602,303.411,380.006,366.387C380.006,366.387,96,599.603,96,599.603C96,599.603,96,599.603,96,599.603M0,768C0,838.605,57.395,896,128,896C128,896,896,896,896,896C966.605,896,1024,838.605,1024,768C1024,768,1024,256,1024,256C1024,185.395,966.605,128,896,128C896,128,128,128,128,128C57.395,128,0,185.395,0,256C0,256,0,768,0,768C0,768,0,768,0,768" class="icon-envelope"/><glyph unicode="&#x0049;" d="M1001.958,893.199C1032.014,923.255,1032.014,971.902,1001.958,1001.63C971.902,1031.441,923.255,1031.686,893.526,1001.63C893.526,1001.63,512.787,620.973,512.787,620.973C512.787,620.973,131.801,1001.958,131.801,1001.958C101.745,1032.014,53.098,1032.014,23.37,1001.958C-6.359,971.902,-6.686,923.255,23.37,893.526C23.37,893.526,404.027,512.787,404.027,512.787C404.027,512.787,23.042,131.801,23.042,131.801C-7.014,101.745,-7.014,53.098,23.042,23.37C53.098,-6.359,101.745,-6.686,131.474,23.37C131.474,23.37,512.213,404.027,512.213,404.027C512.213,404.027,893.199,23.042,893.199,23.042C923.255,-7.014,971.902,-7.014,1001.63,23.042C1031.359,53.098,1031.686,101.745,1001.63,131.474C1001.63,131.474,620.973,512.213,620.973,512.213C620.973,512.213,1001.958,893.199,1001.958,893.199C1001.958,893.199,1001.958,893.199,1001.958,893.199" class="icon-xmark"/><glyph unicode="&#x004a;" d="M471.705,16.918C482.123,6.189,496.771,0,512.042,0C527.357,0,541.738,6.189,552.423,16.918C552.423,16.918,941.988,419.217,941.988,419.217C963.314,441.166,962.424,475.893,940.163,496.685C917.902,517.476,882.641,516.808,861.537,494.859C861.537,494.859,567.694,191.8,567.694,191.8C567.694,191.8,567.694,969.149,567.694,969.149C567.694,999.558,542.895,1024,512.042,1024C481.233,1024,456.389,999.558,456.389,969.149C456.389,969.149,456.389,191.8,456.389,191.8C456.389,191.8,162.813,495.082,162.813,495.082C141.487,517.031,106.449,517.699,84.188,496.907C61.927,476.115,61.259,441.389,82.362,419.439C82.362,419.439,471.928,17.141,471.928,17.141C471.928,17.141,471.705,16.918,471.705,16.918C471.705,16.918,471.705,16.918,471.705,16.918" class="icon-arrow-down"/><glyph unicode="&#x004b;" d="M471.705,1007.082C482.123,1017.811,496.771,1024,512.042,1024C527.357,1024,541.738,1017.811,552.423,1007.082C552.423,1007.082,941.988,604.783,941.988,604.783C963.314,582.834,962.424,548.107,940.163,527.315C917.902,506.524,882.641,507.192,861.537,529.141C861.537,529.141,567.694,832.245,567.694,832.245C567.694,832.245,567.694,54.851,567.694,54.851C567.694,24.442,542.895,0,512.042,0C481.233,0,456.389,24.442,456.389,54.851C456.389,54.851,456.389,832.245,456.389,832.245C456.389,832.245,162.813,528.918,162.813,528.918C141.487,506.969,106.449,506.301,84.188,527.093C61.927,547.885,61.259,582.611,82.362,604.561C82.362,604.561,471.928,1006.859,471.928,1006.859C471.928,1006.859,471.705,1007.082,471.705,1007.082C471.705,1007.082,471.705,1007.082,471.705,1007.082" class="icon-arrow-up"/><glyph unicode="&#x004c;" d="M16.918,471.705C6.189,482.123,0,496.771,0,512.042C0,527.357,6.189,541.738,16.918,552.423C16.918,552.423,419.217,941.988,419.217,941.988C441.166,963.314,475.893,962.424,496.685,940.118C517.476,917.857,516.808,882.641,494.859,861.537C494.859,861.537,191.755,567.694,191.755,567.694C191.755,567.694,969.149,567.694,969.149,567.694C999.558,567.694,1024,542.895,1024,512.042C1024,481.188,999.558,456.389,969.149,456.389C969.149,456.389,191.755,456.389,191.755,456.389C191.755,456.389,495.082,162.813,495.082,162.813C517.031,141.487,517.699,106.449,496.907,84.188C476.115,61.927,441.389,61.259,419.439,82.362C419.439,82.362,17.141,471.928,17.141,471.928C17.141,471.928,16.918,471.705,16.918,471.705C16.918,471.705,16.918,471.705,16.918,471.705" class="icon-arrow-left"/><glyph unicode="&#x004d;" d="M1007.082,471.705C1017.811,482.123,1024,496.771,1024,512.042C1024,527.357,1017.811,541.738,1007.082,552.423C1007.082,552.423,604.783,941.988,604.783,941.988C582.834,963.314,548.107,962.424,527.315,940.118C506.524,917.857,507.192,882.641,529.141,861.537C529.141,861.537,832.2,567.694,832.2,567.694C832.2,567.694,54.851,567.694,54.851,567.694C24.442,567.694,0,542.895,0,512.042C0,481.188,24.442,456.389,54.851,456.389C54.851,456.389,832.2,456.389,832.2,456.389C832.2,456.389,528.918,162.813,528.918,162.813C506.969,141.487,506.301,106.449,527.093,84.188C547.885,61.927,582.611,61.259,604.561,82.362C604.561,82.362,1006.859,471.928,1006.859,471.928C1006.859,471.928,1007.082,471.705,1007.082,471.705C1007.082,471.705,1007.082,471.705,1007.082,471.705" class="icon-arrow-right"/><glyph unicode="&#x004e;" d="M227.551,957.435C251.192,957.435,270.202,938.825,270.202,915.673C270.202,915.673,270.202,846.13,270.202,846.13C270.202,846.13,526.202,846.13,526.202,846.13C526.202,846.13,526.202,915.718,526.202,915.718C526.202,938.825,545.258,957.435,568.899,957.435C592.54,957.435,611.551,938.825,611.551,915.673C611.551,915.673,611.551,846.13,611.551,846.13C611.551,846.13,682.652,846.13,682.652,846.13C745.427,846.13,796.449,796.222,796.449,734.826C796.449,734.826,796.449,623.522,796.449,623.522C796.449,623.522,85.348,623.522,85.348,623.522C85.348,623.522,85.348,178.304,85.348,178.304C85.348,162.989,98.126,150.478,113.753,150.478C113.753,150.478,505.767,150.478,505.767,150.478C527.627,117.799,555.542,89.439,588.088,67C588.088,67,113.753,67,113.753,67C51.022,67,0,116.909,0,178.304C0,178.304,0,734.826,0,734.826C0,796.222,51.022,846.13,113.753,846.13C113.753,846.13,184.899,846.13,184.899,846.13C184.899,846.13,184.899,915.718,184.899,915.718C184.899,938.825,203.91,957.435,227.551,957.435C227.551,957.435,227.551,957.435,227.551,957.435M512,317.435C512,383.861,538.98,447.572,586.975,494.498C634.969,541.468,700.104,567.87,768,567.87C835.896,567.87,900.986,541.468,949.025,494.498C997.02,447.572,1024,383.861,1024,317.435C1024,251.008,997.02,187.298,949.025,140.372C900.986,93.401,835.896,67,768,67C700.104,67,634.969,93.401,586.975,140.372C538.98,187.298,512,251.008,512,317.435C512,317.435,512,317.435,512,317.435M768,456.565C752.328,456.565,739.551,444.055,739.551,428.739C739.551,428.739,739.551,317.435,739.551,317.435C739.551,302.119,752.328,289.609,768,289.609C768,289.609,853.348,289.609,853.348,289.609C868.975,289.609,881.753,302.119,881.753,317.435C881.753,332.75,868.975,345.261,853.348,345.261C853.348,345.261,796.449,345.261,796.449,345.261C796.449,345.261,796.449,428.739,796.449,428.739C796.449,444.055,783.627,456.565,768,456.565C768,456.565,768,456.565,768,456.565" class="icon-calendar-clock"/><glyph unicode="&#x004f;" d="M947.364,604.061C861.789,603.856,778.364,631.306,708.767,682.569C708.767,682.569,708.767,325.058,708.767,325.058C708.767,258.841,689.102,194.211,652.434,139.824C615.766,85.385,563.837,43.801,503.56,20.602C443.335,-2.597,377.63,-6.284,315.305,9.95C252.929,26.235,196.903,61.725,154.653,111.657C112.403,161.589,85.977,223.607,78.91,289.465C71.843,355.273,84.492,421.746,115.117,479.974C145.691,538.202,192.857,585.42,250.266,615.328C307.674,645.236,372.56,656.349,436.268,647.284C436.268,647.284,436.268,467.427,436.268,467.427C407.128,476.902,375.786,476.594,346.8,466.659C317.814,456.673,292.618,437.519,274.847,411.965C257.077,386.359,247.551,355.631,247.756,324.187C247.91,292.692,257.743,262.118,275.872,236.768C293.949,211.367,319.351,192.521,348.439,182.944C377.528,173.316,408.869,173.419,437.907,183.2C466.944,192.982,492.243,211.982,510.167,237.434C528.091,262.938,537.77,293.614,537.77,325.058C537.77,325.058,537.77,1024,537.77,1024C537.77,1024,708.767,1024,708.767,1024C708.665,1009.097,709.894,994.246,712.403,979.65C718.344,946.977,730.686,915.891,748.713,888.288C766.739,860.685,789.99,837.178,817.183,819.152C855.797,792.88,901.068,778.848,947.364,778.848C947.364,778.848,947.364,604.061,947.364,604.061C947.364,604.061,947.364,604.061,947.364,604.061" class="icon-tiktok"/><glyph unicode="&#x0050;" d="M1002.596,765.155C990.814,810.516,956.106,846.205,912.071,858.331C832.199,880.373,511.975,880.373,511.975,880.373C511.975,880.373,191.751,880.373,111.929,858.331C67.844,846.205,33.137,810.516,21.355,765.155C0,682.976,0,511.45,0,511.45C0,511.45,0,339.924,21.355,257.745C33.137,212.384,67.844,178.168,111.929,166.042C191.751,144,511.975,144,511.975,144C511.975,144,832.199,144,912.071,166.042C956.106,178.168,990.814,212.384,1002.596,257.745C1024,339.924,1024,511.45,1024,511.45C1024,511.45,1024,682.976,1002.596,765.155C1002.596,765.155,1002.596,765.155,1002.596,765.155M407.263,355.732C407.263,355.732,407.263,667.168,407.263,667.168C407.263,667.168,674.91,511.45,674.91,511.45C674.91,511.45,407.263,355.732,407.263,355.732C407.263,355.732,407.263,355.732,407.263,355.732" class="icon-youtube"/><glyph unicode="&#x0051;" d="M237.647,0C237.647,0,31.443,0,31.443,0C31.443,0,31.443,683.681,31.443,683.681C31.443,683.681,237.647,683.681,237.647,683.681C237.647,683.681,237.647,0,237.647,0C237.647,0,237.647,0,237.647,0M134.428,776.894C68.482,776.894,15,833.126,15,901.003C15,933.654,27.581,964.901,49.992,987.955C72.344,1011.01,102.771,1024,134.428,1024C166.084,1024,196.453,1011.01,218.864,987.955C241.275,964.901,253.855,933.654,253.855,901.003C253.855,833.126,200.315,776.894,134.428,776.894C134.428,776.894,134.428,776.894,134.428,776.894M803.714,0C803.714,0,803.714,332.829,803.714,332.829C803.714,412.116,802.193,513.814,696.516,513.814C589.259,513.814,572.817,427.681,572.817,338.505C572.817,338.505,572.817,0,572.817,0C572.817,0,366.846,0,366.846,0C366.846,0,366.846,683.681,366.846,683.681C366.846,683.681,564.625,683.681,564.625,683.681C564.625,683.681,564.625,590.409,564.625,590.409C564.625,590.409,567.492,590.409,567.492,590.409C595.052,644.125,662.285,700.826,762.637,700.826C971.357,700.826,1009.743,559.338,1009.743,375.545C1009.743,375.545,1009.743,0,1009.743,0C1009.743,0,803.714,0,803.714,0C803.714,0,803.714,0,803.714,0" class="icon-linkedin"/><glyph unicode="&#x0052;" d="M725.348,748.784C725.348,733.824,722.143,716.951,716.444,699.053C706.337,667.042,688.707,631.558,667.737,596.074C667.737,596.074,667.559,595.718,667.559,595.718C662.038,586.368,656.384,577.152,650.507,567.892C642.671,555.737,634.657,543.583,626.51,531.74C626.51,531.74,625.798,530.716,625.798,530.716C593.608,483.924,560.529,441.806,538.312,414.871C524.644,398.175,499.222,398.175,485.688,414.871C463.649,441.806,430.392,483.924,398.247,530.716C365.523,578.176,333.69,630.712,315.214,677.46C313.789,681.111,312.365,684.761,311.118,688.457C303.282,710.361,298.696,730.886,298.696,748.606C298.696,756.798,299.231,764.767,300.121,772.603C312.186,876.784,402.521,957.457,512,957.457C629.894,957.457,725.348,864.095,725.348,748.784C725.348,748.784,725.348,748.784,725.348,748.784M625.798,434.683C649.795,466.338,676.998,504.092,701.707,543.227C704.913,548.258,708.118,553.289,711.146,558.542C711.146,558.542,711.146,168.443,711.146,168.443C711.146,168.443,938.696,249.294,938.696,249.294C938.696,249.294,938.696,689.125,938.696,689.125C938.696,689.125,745.427,620.427,745.427,620.427C749.345,628.619,753.263,636.589,756.647,644.781C767.11,669.134,776.192,695.58,780.11,721.67C780.11,721.67,966.79,788.096,966.79,788.096C979.923,792.771,994.527,790.857,1005.88,783.065C1017.277,775.23,1024,762.541,1024,748.784C1024,748.784,1024,220.088,1024,220.088C1024,202.502,1012.825,186.875,995.907,180.775C995.907,180.775,683.053,69.471,683.053,69.471C673.614,66.176,663.285,66.176,653.891,69.471C653.891,69.471,355.551,175.744,355.551,175.744C355.551,175.744,57.255,69.649,57.255,69.649C44.121,64.974,29.518,66.889,18.165,74.68C6.767,82.516,0,95.205,0,108.784C0,108.784,0,637.479,0,637.479C0,655.065,11.219,670.693,28.093,676.792C28.093,676.792,241.798,752.791,241.798,752.791C241.798,751.41,241.798,750.164,241.798,748.784C241.798,722.516,248.387,695.402,257.603,669.49C257.603,669.49,85.348,608.273,85.348,608.273C85.348,608.273,85.348,168.443,85.348,168.443C85.348,168.443,312.899,249.294,312.899,249.294C312.899,249.294,312.899,558.364,312.899,558.364C316.104,553.111,319.132,548.08,322.337,543.049C347.047,503.914,374.072,466.16,398.247,434.505C398.247,434.505,398.247,249.294,398.247,249.294C398.247,249.294,625.798,168.443,625.798,168.443C625.798,168.443,625.798,434.683,625.798,434.683C625.798,434.683,625.798,434.683,625.798,434.683M512,693.131C530.877,693.131,548.953,700.478,562.31,713.522C575.622,726.567,583.146,744.242,583.146,762.674C583.146,781.151,575.622,798.826,562.31,811.871C548.953,824.916,530.877,832.262,512,832.262C493.167,832.262,475.047,824.916,461.735,811.871C448.378,798.826,440.899,781.151,440.899,762.674C440.899,744.242,448.378,726.567,461.735,713.522C475.047,700.478,493.167,693.131,512,693.131C512,693.131,512,693.131,512,693.131" class="icon-map"/><glyph unicode="&#x0053;" d="M806.394,975.179C806.394,975.179,963.503,975.179,963.503,975.179C963.503,975.179,620.347,583.09,620.347,583.09C620.347,583.09,1024,49.5,1024,49.5C1024,49.5,708.016,49.5,708.016,49.5C708.016,49.5,460.39,373.06,460.39,373.06C460.39,373.06,177.332,49.5,177.332,49.5C177.332,49.5,19.995,49.5,19.995,49.5C19.995,49.5,386.962,468.932,386.962,468.932C386.962,468.932,0,975.179,0,975.179C0,975.179,323.959,975.179,323.959,975.179C323.959,975.179,547.603,679.474,547.603,679.474C547.603,679.474,806.394,975.179,806.394,975.179C806.394,975.179,806.394,975.179,806.394,975.179M751.195,143.378C751.195,143.378,838.181,143.378,838.181,143.378C838.181,143.378,276.564,886.2,276.564,886.2C276.564,886.2,183.142,886.2,183.142,886.2C183.142,886.2,751.195,143.378,751.195,143.378C751.195,143.378,751.195,143.378,751.195,143.378" class="icon-x"/><glyph unicode="&#x0054;" d="M512.61,774.551C371.464,774.551,257.576,657.329,257.576,512.029C257.576,366.671,371.464,249.449,512.61,249.449C653.757,249.449,767.645,366.671,767.645,512.029C767.645,657.329,653.757,774.551,512.61,774.551C512.61,774.551,512.61,774.551,512.61,774.551M512.61,341.343C421.359,341.343,346.779,417.854,346.779,512.029C346.779,606.146,421.184,682.715,512.61,682.715C604.037,682.715,678.442,606.146,678.442,512.029C678.442,417.854,603.861,341.343,512.61,341.343C512.61,341.343,512.61,341.343,512.61,341.343M837.546,785.314C837.546,751.271,810.931,724.071,778.057,724.071C745.008,724.071,718.569,751.446,718.569,785.314C718.569,819.124,745.242,846.499,778.057,846.499C810.931,846.499,837.546,819.124,837.546,785.314C837.546,785.314,837.546,785.314,837.546,785.314M1006.477,723.135C1002.734,805.144,984.483,877.852,926.106,937.692C867.963,997.59,797.419,1016.308,717.691,1020.403C635.565,1025.199,389.422,1025.199,307.296,1020.403C227.802,1016.542,157.258,997.765,98.881,937.926C40.503,878.086,22.487,805.378,18.51,723.369C13.83,638.845,13.83,385.448,18.51,300.865C22.312,218.856,40.503,146.206,98.881,86.308C157.258,26.469,227.627,7.75,307.296,3.597C389.422,-1.199,635.565,-1.199,717.691,3.597C797.419,7.517,867.963,26.235,926.106,86.308C984.308,146.206,1002.5,218.856,1006.477,300.865C1011.157,385.448,1011.157,638.611,1006.477,723.135C1006.477,723.135,1006.477,723.135,1006.477,723.135M900.369,210.199C883.054,165.392,849.537,130.881,805.842,112.865C740.328,86.074,584.968,92.275,512.61,92.275C440.253,92.275,284.658,86.308,219.379,112.865C175.918,130.647,142.4,165.158,124.852,210.199C98.881,277.584,104.847,437.508,104.847,512.029C104.847,586.492,99.115,746.65,124.852,813.859C142.166,858.608,175.684,893.119,219.379,911.194C284.892,937.926,440.253,931.725,512.61,931.725C584.968,931.725,740.562,937.692,805.842,911.194C849.303,893.353,882.82,858.842,900.369,813.859C926.34,746.474,920.374,586.492,920.374,512.029C920.374,437.508,926.34,277.35,900.369,210.199C900.369,210.199,900.369,210.199,900.369,210.199" class="icon-instagram"/><glyph unicode="&#x0055;" d="M346.267,425.421C346.267,425.421,346.267,0,346.267,0C346.267,0,587.573,0,587.573,0C587.573,0,587.573,425.421,587.573,425.421C587.573,425.421,767.49,425.421,767.49,425.421C767.49,425.421,804.917,621.005,804.917,621.005C804.917,621.005,587.573,621.005,587.573,621.005C587.573,621.005,587.573,690.227,587.573,690.227C587.573,793.6,629.762,833.229,738.766,833.229C772.661,833.229,799.899,832.41,815.72,830.822C815.72,830.822,815.72,1008.23,815.72,1008.23C785.973,1016.013,713.166,1024,671.182,1024C448.821,1024,346.267,923.034,346.267,705.229C346.267,705.229,346.267,621.005,346.267,621.005C346.267,621.005,209,621.005,209,621.005C209,621.005,209,425.421,209,425.421C209,425.421,346.267,425.421,346.267,425.421C346.267,425.421,346.267,425.421,346.267,425.421" class="icon-facebook"/><glyph unicode="&#x0056;" d="M784.812,464.503C811.26,490.659,811.26,532.965,784.812,558.857C784.812,558.857,334.926,1004.383,334.926,1004.383C308.478,1030.539,265.763,1030.539,239.607,1004.383C213.451,978.227,213.159,935.922,239.607,910.029C239.607,910.029,641.686,512.104,641.686,512.104C641.686,512.104,239.314,113.858,239.314,113.858C212.895,87.702,212.895,45.396,239.314,19.533C265.763,-6.36,308.478,-6.652,334.634,19.504C334.634,19.504,784.812,464.503,784.812,464.503C784.812,464.503,784.812,464.503,784.812,464.503" class="icon-angle-right"/><glyph unicode="&#x0057;" d="M239.314,464.503C212.895,490.659,212.895,532.965,239.314,558.857C239.314,558.857,689.2,1004.383,689.2,1004.383C715.648,1030.539,758.363,1030.539,784.519,1004.383C810.675,978.227,810.967,935.922,784.519,910.029C784.519,910.029,382.44,512.104,382.44,512.104C382.44,512.104,784.812,113.858,784.812,113.858C811.231,87.702,811.231,45.396,784.812,19.533C758.363,-6.36,715.648,-6.652,689.492,19.504C689.492,19.504,239.314,464.503,239.314,464.503C239.314,464.503,239.314,464.503,239.314,464.503" class="icon-angle-left"/><glyph unicode="&#x0058;" d="M559.497,784.812C533.341,811.231,491.035,811.231,465.143,784.812C465.143,784.812,19.617,334.926,19.617,334.926C-6.539,308.478,-6.539,265.763,19.617,239.607C45.773,213.451,88.078,213.159,113.971,239.607C113.971,239.607,511.896,641.686,511.896,641.686C511.896,641.686,910.142,239.314,910.142,239.314C936.298,212.895,978.604,212.895,1004.467,239.314C1030.36,265.763,1030.652,308.478,1004.496,334.634C1004.496,334.634,559.497,784.812,559.497,784.812C559.497,784.812,559.497,784.812,559.497,784.812" class="icon-angle-up"/><glyph unicode="&#x0059;" d="M559.497,239.336C533.341,212.888,491.035,212.888,465.143,239.336C465.143,239.336,19.617,689.222,19.617,689.222C-6.539,715.67,-6.539,758.385,19.617,784.541C45.773,810.697,88.078,810.989,113.971,784.541C113.971,784.541,511.896,382.462,511.896,382.462C511.896,382.462,910.142,784.834,910.142,784.834C936.298,811.253,978.604,811.253,1004.467,784.834C1030.36,758.385,1030.652,715.67,1004.496,689.514C1004.496,689.514,559.497,239.336,559.497,239.336C559.497,239.336,559.497,239.336,559.497,239.336" class="icon-angle-down"/><glyph unicode="&#x005a;" d="M735.925,608.257C735.925,693.093,702.234,774.515,642.215,834.485C582.197,894.504,500.823,928.243,415.938,928.243C331.103,928.243,249.729,894.504,189.71,834.485C129.691,774.515,96.001,693.093,96.001,608.257C96.001,523.421,129.691,441.999,189.71,382.029C249.729,322.01,331.103,288.271,415.938,288.271C500.823,288.271,582.197,322.01,642.215,382.029C702.234,441.999,735.925,523.421,735.925,608.257C735.925,608.257,735.925,608.257,735.925,608.257M674.151,282.079C603.357,225.912,513.548,192.319,415.938,192.319C186.2,192.319,0,378.47,0,608.257C0,838.045,186.2,1024.195,415.938,1024.195C645.726,1024.195,831.925,838.045,831.925,608.257C831.925,510.647,798.332,420.887,742.117,350.094C742.117,350.094,1009.885,82.325,1009.885,82.325C1028.705,63.505,1028.705,33.13,1009.885,14.505C991.114,-4.071,960.69,-4.266,942.114,14.505C942.114,14.505,674.151,282.079,674.151,282.079C674.151,282.079,674.151,282.079,674.151,282.079" class="icon-magnifying-glass"/></font>
</defs>
</svg>
